<svg width="23.332" height="23.333" xmlns="http://www.w3.org/2000/svg"><title>background</title><path fill="none" d="M-1-1h582v402H-1z"/><title>Layer 1</title><path fill="#003f7f" d="M16.043 11.667L22.609 5.1a2.484 2.484 0 0 0 0-3.502l-.875-.875a2.482 2.482 0 0 0-3.502 0L11.666 7.29 5.099.723a2.482 2.482 0 0 0-3.501 0l-.876.875a2.485 2.485 0 0 0 0 3.502l6.566 6.5-6.566 6.633a2.484 2.484 0 0 0 0 3.501l.876.875a2.482 2.482 0 0 0 3.501 0l6.567-6.565 6.566 6.565a2.484 2.484 0 0 0 3.502 0l.875-.908c.832-.8.963-2.506 0-3.468l-6.566-6.566z"/><path d="M2.642 2.855c.033 0 .13.13.294.261.163.13.355.364.653.62.386.333.715.591 1.044.816.292.2.555.359.881.522.196.098.458.182.62.196.198.016.392.033.62.033.36 0 .732-.076 1.11-.327.408-.27.821-.579 1.142-.914.339-.353.44-.682.49-.979.048-.291.081-.553.098-.783.011-.163.065-.294.065-.424V1.68" stroke-opacity="null" stroke-width="null" stroke="null" fill="none"/><path d="M6.297 4.258c0 .066.039.128.131.327.105.225.207.484.326.75.144.32.326.62.49.881.227.36.359.555.522.784l.163.163.098.098.033.032" stroke-opacity="null" stroke-width="null" stroke="null" fill="none"/><path stroke-opacity="null" stroke-width="null" stroke="null" fill="#3a41c4" d="M6.983 15.942h.294v.294h-.294z"/></svg>